<svg 
 xmlns="http://www.w3.org/2000/svg"
 xmlns:xlink="http://www.w3.org/1999/xlink"
 width="61px" height="61px">
<path fill-rule="evenodd"  stroke="rgb(255, 255, 255)" stroke-width="2px" stroke-linecap="butt" stroke-linejoin="miter" fill="none"
 d="M49.000,59.000 L11.000,59.000 C5.477,59.000 1.000,54.523 1.000,49.000 L1.000,11.000 C1.000,5.477 5.477,1.000 11.000,1.000 L49.000,1.000 C54.523,1.000 59.000,5.477 59.000,11.000 L59.000,49.000 C59.000,54.523 54.523,59.000 49.000,59.000 ZM36.981,23.943 C38.298,22.580 38.298,20.372 36.981,19.010 C35.663,17.648 33.528,17.648 32.210,19.010 L23.970,27.530 C22.653,28.892 22.653,31.101 23.970,32.463 L32.210,40.983 C33.528,42.345 35.663,42.345 36.981,40.983 C38.298,39.621 38.298,37.413 36.981,36.050 L31.126,29.996 L36.981,23.943 Z"/>
</svg>                                                                                          
                                                                                                    
                                                                                                    
                                                                                                    
                                                                                                    
                                                                                                    
                                                                                                    
                                                                                                    
                                                                                                    
                                                                                                    
                                                                                                    
                                                                                                    
                                                                                                    
                                                                                                    
                                                                                                    
                                                                                                    
                                                                                                    
                                                                                                    
                                                                                                    
                           
<?xpacket end="w"?></metadata>
<defs>
    <style>
      .cls-1 {
        fill: none;
        stroke: #fff;
        stroke-width: 2px;
        fill-rule: evenodd;
      }
    </style>
  </defs>
  <path id="LEFT_BUTTON_ACTIVE" class="cls-1" d="M33,461H71a10,10,0,0,1,10,10v38a10,10,0,0,1-10,10H33a10,10,0,0,1-10-10V471A10,10,0,0,1,33,461Zm12.97,26.53a3.3,3.3,0,0,1,4.77,0l8.24,8.52a3.573,3.573,0,0,1,0,4.933,3.3,3.3,0,0,1-4.771,0l-8.24-8.52A3.573,3.573,0,0,1,45.97,487.53Zm0,0,8.24-8.52a3.3,3.3,0,0,1,4.771,0,3.573,3.573,0,0,1,0,4.933l-8.24,8.52a3.3,3.3,0,0,1-4.77,0A3.573,3.573,0,0,1,45.97,487.53Z" transform="translate(-22 -460)"/>
</svg>
