<svg xmlns="http://www.w3.org/2000/svg" width="115" height="23.03" viewBox="0 0 115 23.03">
  <metadata><?xpacket begin="﻿" id="W5M0MpCehiHzreSzNTczkc9d"?>
<x:xmpmeta xmlns:x="adobe:ns:meta/" x:xmptk="Adobe XMP Core 5.6-c138 79.159824, 2016/09/14-01:09:01        ">
   <rdf:RDF xmlns:rdf="http://www.w3.org/1999/02/22-rdf-syntax-ns#">
      <rdf:Description rdf:about=""/>
   </rdf:RDF>
</x:xmpmeta>
                                                                                                    
                                                                                                    
                                                                                                    
                                                                                                    
                                                                                                    
                                                                                                    
                                                                                                    
                                                                                                    
                                                                                                    
                                                                                                    
                                                                                                    
                                                                                                    
                                                                                                    
                                                                                                    
                                                                                                    
                                                                                                    
                                                                                                    
                                                                                                    
                                                                                                    
                                                                                                    
                           
<?xpacket end="w"?></metadata>
<defs>
    <style>
      .cls-1 {
        fill-rule: evenodd;
      }
    </style>
  </defs>
  <path id="THE_BIKE_SHOP" data-name="THE BIKE SHOP" class="cls-1" d="M414,2899.97h95a10,10,0,0,1,10,10V2913a10,10,0,0,1-10,10H414a10,10,0,0,1-10-10v-3.03A10,10,0,0,1,414,2899.97Zm98.245,11.71a2.623,2.623,0,0,1-2.043.71h-1.167v5.12h-0.794V2906.3h1.783a3.086,3.086,0,0,1,2.058.44,2.344,2.344,0,0,1,.616,2.05v1.27A2.2,2.2,0,0,1,512.245,2911.68Zm-0.325-1.62v-0.97c0-1-.016-1.54-0.47-1.87a1.691,1.691,0,0,0-1.215-.27h-1.216v4.79h1.3a1.643,1.643,0,0,0,1.232-.39A1.8,1.8,0,0,0,511.92,2910.06Zm-11.119,7.59a2.436,2.436,0,0,1-1.783-.68,2.738,2.738,0,0,1-.5-1.86v-6.32a4.2,4.2,0,0,1,.179-1.27,2.12,2.12,0,0,1,2.188-1.35,2.491,2.491,0,0,1,1.459.41,2.76,2.76,0,0,1,.81,2.45v6.19a2.57,2.57,0,0,1-.341,1.46A2.206,2.206,0,0,1,500.8,2917.65Zm1.588-8.19a4,4,0,0,0-.275-1.89,1.1,1.1,0,0,0-.519-0.53,1.7,1.7,0,0,0-.762-0.17,1.618,1.618,0,0,0-.875.24,1.726,1.726,0,0,0-.665,1.52v6.18a4.016,4.016,0,0,0,.13,1.27,1.452,1.452,0,0,0,1.426.87,1.48,1.48,0,0,0,.892-0.27,1.915,1.915,0,0,0,.648-1.76v-5.46Zm-9.726,2.5h-2.95v5.55h-0.778V2906.3h0.778v4.98h2.95v-4.98h0.8v11.21h-0.8v-5.55Zm-10.487-.36a15.253,15.253,0,0,1,1.167,1.22,3.131,3.131,0,0,1,.729,2.21,3.252,3.252,0,0,1-.405,1.83,2.22,2.22,0,0,1-1.945.82,3,3,0,0,1-1.313-.27,2.683,2.683,0,0,1-.373-0.27,1.962,1.962,0,0,1-.567-0.81,2.434,2.434,0,0,1-.13-0.9v-1.59h0.8v0.9c0,0.24-.017.46,0,0.7a1.492,1.492,0,0,0,1.685,1.56,1.549,1.549,0,0,0,.827-0.21,1.689,1.689,0,0,0,.632-1.63,2.683,2.683,0,0,0-.405-1.61,8.952,8.952,0,0,0-1.3-1.44,11.391,11.391,0,0,1-1.313-1.42,3.272,3.272,0,0,1-.648-2.08,5,5,0,0,1,.065-0.84,1.863,1.863,0,0,1,2.091-1.63,2.728,2.728,0,0,1,1.345.31,2.449,2.449,0,0,1,.794,2.28v0.81h-0.778v-1a3.022,3.022,0,0,0-.049-0.75,1.149,1.149,0,0,0-1.3-.99,1.313,1.313,0,0,0-1.378,1.69,2.863,2.863,0,0,0,.989,2.27C481.641,2911.04,481.9,2911.31,482.176,2911.6Zm-16.7-.29h2.691V2912H465.48v4.81h3.258v0.7H464.7V2906.3h4.052v0.69H465.48v4.32Zm-6.062,6.2-2.091-5.82-0.843,1.56v4.26h-0.778V2906.3H456.5v5.49l2.853-5.49h0.891l-2.431,4.46,2.464,6.75h-0.859Zm-9.661-11.21h0.827v11.21h-0.827V2906.3Zm-7.019,11.21h-2.285V2906.3h2.172a1.555,1.555,0,0,1,1.864,1.76v1.67a2.518,2.518,0,0,1-.081.76,1.438,1.438,0,0,1-1.265.93,2.411,2.411,0,0,1,1.216.43,1.959,1.959,0,0,1,.535,1.65v1.93a1.923,1.923,0,0,1-.567,1.6A2.368,2.368,0,0,1,442.738,2917.51Zm0.973-7.96v-1.35a1.937,1.937,0,0,0-.081-0.65,1.292,1.292,0,0,0-1.378-.59h-1v4.16h0.778a2.363,2.363,0,0,0,.778-0.09A1.333,1.333,0,0,0,443.711,2909.55Zm0.389,3.94a2.34,2.34,0,0,0-.1-0.76,1.788,1.788,0,0,0-1.928-.92h-0.811v5.01h1.345a1.647,1.647,0,0,0,1.054-.25,1.627,1.627,0,0,0,.438-1.49v-1.59Zm-14.54-2.18h2.691V2912H429.56v4.81h3.258v0.7h-4.036V2906.3h4.052v0.69H429.56v4.32Zm-6.711.65H419.9v5.55h-0.778V2906.3H419.9v4.98h2.95v-4.98h0.794v11.21h-0.794v-5.55Zm-10.082,5.55h-0.811v-10.52h-1.993v-0.69h4.83v0.69h-2.026v10.52Z" transform="translate(-404 -2899.97)"/>
</svg>
